<svg xmlns="http://www.w3.org/2000/svg" fill="none" viewBox="0 0 283 64"><path fill="black" d="m141.04 16 c0 7.944-6.003 14.383-13.415 14.383-7.412 0-13.415-6.439-13.415-14.383 0-7.944 6.003-14.383 13.415-14.383 7.412 0 13.415 6.439 13.415 14.383Z m-88.656 58.953 0 0c2.665 0 5.207-1.058 7.083-2.944l48.77-48.77c1.886-1.876 2.944-4.418 2.944-7.083s-1.058-5.207-2.944-7.083L59.467 2.944C57.591 1.058 55.049 0 52.384 0s-5.207 1.058-7.083 2.944L2.944 45.301C1.058 47.177 0 49.719 0 52.384s1.058 5.207 2.944 7.083l42.357 42.357c1.876 1.886 4.418 2.944 7.083 2.944Z m.001-14.377c-.553 0-1.083-.22-1.473-.611L8.555 22.608c-.391-.39-.611-.92-.611-1.473s.22-1.083.611-1.473L51.912 6.305c.39-.391.92-.611 1.473-.611s1.083.22 1.473.611L98.215 49.662c.391.39.611.92.611 1.473s-.22 1.083-.611 1.473L54.858 95.965c-.39.391-.92.611-1.473.611Z"/></svg>